<?xml version="1.0" encoding="UTF-8"?>
<svg id="Ebene_1" data-name="Ebene 1" xmlns="http://www.w3.org/2000/svg" viewBox="0 0 99.99 102.97">
  <defs>
    <style>
      .cls-1 {
        fill: #31241b;
      }

      .cls-2 {
        fill: #fffefe;
      }

      .cls-3 {
        fill: #f2b076;
      }
    </style>
  </defs>
  <path class="cls-2" d="M57.74,19.47c1.7-2.02,3-4.34,3.42-6.84.94-5.66-3.69-11.87-9.63-12.55-6.75-.78-13.07,5.05-13.02,11.69.02,3.2,1.57,6.61,3.87,8.72,4.16,3.82,11.64,3.4,15.36-1.01ZM84.39,34.09c2.61-1.97,4.14-3.94,5.99-6.29,5.44-6.95,9.2-14.97,9.61-23.97.04-.82-.17-1.96-.65-2.19s-1.25-.42-2.02-.35c-21.1,1.82-35.71,15.66-41.48,35.69-.88,3.05-1.75,5.84-.97,9.12,10.8-.74,20.74-5.37,29.53-12ZM46.89,44.85C41.91,28.1,29.71,15.15,12.69,11.84c-3.93-.76-8.04-1.33-11.74-.16-4.3,1.37,5.48,30.63,39.35,33.76,2.2.2,4.24,1.2,6.58-.6ZM87.25,52.57c-4.98-.82-8.85-.15-13.07.43-3.56,1.54-6.28,4.16-8.35,7.54-3.74,6.11-6.47,12.62-9.75,19.03-.58,1.13-1.03,2.25-2.25,3.3-4.05-8.06-7.54-15.85-12.28-23.29-2.88-4.51-7.78-6.8-12.94-7.11-4.16-.25-8.04-.57-12.05.51.58,2.56,1.76,4.38,2.78,6.52l15.65,32.62c1.57,3.28,3.73,6.55,6.95,8.31,5.88,3.2,13.35,3.45,19.27.23,3.9-2.13,6.38-6.17,8.21-10.08l12.43-26.47c1.83-3.89,3.7-7.5,5.38-11.55Z"/>
  <path class="cls-1" d="M87.25,52.57c-1.69,4.04-3.56,7.66-5.38,11.55l-12.43,26.47c-1.84,3.91-4.31,7.96-8.21,10.08-5.92,3.22-13.39,2.98-19.27-.23-3.22-1.76-5.38-5.03-6.95-8.31l-15.65-32.62c-1.02-2.13-2.2-3.96-2.78-6.52,4.01-1.08,7.89-.76,12.05-.51,5.16.31,10.07,2.61,12.94,7.11,4.75,7.43,8.23,15.23,12.28,23.29,1.21-1.05,1.67-2.17,2.25-3.3,3.28-6.41,6.01-12.92,9.75-19.03,2.07-3.38,4.78-6,8.35-7.54,4.22-.58,8.1-1.25,13.07-.43Z"/>
  <path class="cls-3" d="M84.39,34.09c-8.78,6.63-18.73,11.26-29.53,12-.78-3.28.09-6.07.97-9.12C61.61,16.93,76.22,3.09,97.32,1.28c.77-.07,1.54.12,2.02.35s.68,1.37.65,2.19c-.41,9-4.17,17.01-9.61,23.97-1.85,2.36-3.38,4.33-5.99,6.29Z"/>
  <path class="cls-3" d="M46.89,44.85c-2.34,1.8-4.38.8-6.58.6C6.43,42.31-3.35,13.06.95,11.69c3.7-1.18,7.8-.61,11.74.16,17.02,3.3,29.22,16.26,34.2,33.01Z"/>
  <path class="cls-3" d="M57.74,19.47c-3.71,4.41-11.2,4.84-15.36,1.01-2.31-2.12-3.85-5.52-3.87-8.72-.05-6.64,6.27-12.47,13.02-11.69,5.93.69,10.57,6.9,9.63,12.55-.42,2.5-1.71,4.82-3.42,6.84Z"/>
</svg>